<svg xmlns="http://www.w3.org/2000/svg" viewBox="0 0 1200 630" width="1200" height="630" role="img" aria-label="Osteoarthritis — Dr. Nitin N Sunku">
  <defs>
    <linearGradient id="bg" x1="0%" y1="0%" x2="100%" y2="100%">
      <stop offset="0%" stop-color="#4C0519"/>
      <stop offset="55%" stop-color="#9F1239"/>
      <stop offset="100%" stop-color="#F43F5E"/>
    </linearGradient>
    <radialGradient id="glow" cx="80%" cy="18%" r="55%">
      <stop offset="0%" stop-color="rgba(255,255,255,0.18)"/>
      <stop offset="100%" stop-color="rgba(255,255,255,0)"/>
    </radialGradient>
    <pattern id="dots" x="0" y="0" width="42" height="42" patternUnits="userSpaceOnUse">
      <circle cx="2" cy="2" r="1.6" fill="rgba(255,255,255,0.07)"/>
    </pattern>
  </defs>
  <rect width="1200" height="630" fill="url(#bg)"/>
  <rect width="1200" height="630" fill="url(#dots)"/>
  <rect width="1200" height="630" fill="url(#glow)"/>
  <g transform="translate(600 285)" stroke="white" stroke-width="6" fill="none" stroke-linecap="round" stroke-linejoin="round" opacity="0.9">
    <path d="M-90 -110 Q -90 -40, -55 -10 Q -10 25, -10 75 L -10 130" fill="rgba(255,255,255,0.08)"/>
    <path d="M 90 -110 Q 90 -40, 55 -10 Q 10 25, 10 75 L 10 130" fill="rgba(255,255,255,0.08)"/>
    <line x1="-70" y1="0" x2="-30" y2="20" stroke-width="3" opacity="0.7"/>
    <line x1="70" y1="0" x2="30" y2="20" stroke-width="3" opacity="0.7"/>
    <line x1="-50" y1="40" x2="-15" y2="60" stroke-width="3" opacity="0.7"/>
    <line x1="50" y1="40" x2="15" y2="60" stroke-width="3" opacity="0.7"/>
  </g>
  <text x="60" y="540" font-family="ui-sans-serif, system-ui, -apple-system, Segoe UI, Roboto, Helvetica, Arial" font-size="34" font-weight="700" fill="white" letter-spacing="0.5">Osteoarthritis</text>
  <text x="60" y="582" font-family="ui-sans-serif, system-ui, -apple-system, Segoe UI, Roboto, Helvetica, Arial" font-size="20" fill="white" opacity="0.7">Dr. Nitin N Sunku · Attibele &amp; HSR Layout, Bengaluru</text>
</svg>
