<svg xmlns="http://www.w3.org/2000/svg" viewBox="0 0 1200 630" width="1200" height="630" role="img" aria-label="Tendon Care — Dr. Nitin N Sunku">
  <defs>
    <linearGradient id="bg" x1="0%" y1="0%" x2="100%" y2="100%">
      <stop offset="0%" stop-color="#451A03"/>
      <stop offset="55%" stop-color="#92400E"/>
      <stop offset="100%" stop-color="#F59E0B"/>
    </linearGradient>
    <radialGradient id="glow" cx="80%" cy="18%" r="55%">
      <stop offset="0%" stop-color="rgba(255,255,255,0.18)"/>
      <stop offset="100%" stop-color="rgba(255,255,255,0)"/>
    </radialGradient>
    <pattern id="dots" x="0" y="0" width="42" height="42" patternUnits="userSpaceOnUse">
      <circle cx="2" cy="2" r="1.6" fill="rgba(255,255,255,0.07)"/>
    </pattern>
  </defs>
  <rect width="1200" height="630" fill="url(#bg)"/>
  <rect width="1200" height="630" fill="url(#dots)"/>
  <rect width="1200" height="630" fill="url(#glow)"/>
  <g transform="translate(600 285)" stroke="white" stroke-width="5" fill="none" stroke-linecap="round" opacity="0.9">
    <path d="M-160 -10 Q -100 -40, -40 -10 Q 20 20, 80 -10 Q 140 -40, 200 -10" />
    <path d="M-160 30 Q -100 0, -40 30 Q 20 60, 80 30 Q 140 0, 200 30" opacity="0.85"/>
    <path d="M-160 70 Q -100 40, -40 70 Q 20 100, 80 70 Q 140 40, 200 70" opacity="0.7"/>
    <circle cx="-40" cy="-10" r="6" fill="white" opacity="0.85"/>
    <circle cx="80" cy="-10" r="6" fill="white" opacity="0.85"/>
  </g>
  <text x="60" y="540" font-family="ui-sans-serif, system-ui, -apple-system, Segoe UI, Roboto, Helvetica, Arial" font-size="34" font-weight="700" fill="white" letter-spacing="0.5">Tendon Care</text>
  <text x="60" y="582" font-family="ui-sans-serif, system-ui, -apple-system, Segoe UI, Roboto, Helvetica, Arial" font-size="20" fill="white" opacity="0.7">Dr. Nitin N Sunku · Attibele &amp; HSR Layout, Bengaluru</text>
</svg>
