<svg xmlns="http://www.w3.org/2000/svg" width="1080" height="1080" preserveAspectRatio="xMidYMid meet" viewBox="0 0 810 810"><defs><clipPath id="9db5e7c020"><path d="M405 0C181.324 0 0 181.324 0 405s181.324 405 405 405 405-181.324 405-405S628.676 0 405 0Zm0 0" clip-rule="nonzero"/></clipPath><clipPath id="4a37e65576"><path d="M715 348h43.898v35H715Zm0 0" clip-rule="nonzero"/></clipPath><clipPath id="3d2af3fcef"><path d="M50.898 399H93v33H50.898Zm0 0" clip-rule="nonzero"/></clipPath></defs><g clip-path="url(#9db5e7c020)"><path fill="#fff" fill-opacity="1" d="M-81-81h972v972H-81z"/></g><path fill="#3baa9c" fill-opacity="1" fill-rule="nonzero" d="M218.723 695.797c-1.274 4.18.605 7.45 5.136 10.137 4.52 2.68 7.434 2.171 9.012-.489 1.754-2.953.621-5.355-5.219-10.773-9.28-8.64-9.785-13.797-6.875-18.7 3.75-6.331 11.403-7.605 20.672-2.105 10.399 6.164 11.469 13.805 8.883 19.453l-8.535-5.062c.918-2.477 1.023-5.696-4.024-8.688-3.441-2.035-6.293-1.953-7.824.625-1.496 2.524-.437 4.54 5.082 9.649 9.918 9.246 10.086 14.652 7.051 19.773-3.934 6.637-12.039 7.977-22.394 1.84-9.938-5.894-12.485-13.539-9.497-20.715ZM263.516 707.8l6.902 2.981c4.18 1.813 7.785 1.598 9.492-2.355 1.73-3.996-.746-6.836-4.578-8.5l-7.086-3.063Zm-1.434-21.515 17.293 7.477c8.887 3.843 12.914 11.086 9.734 18.445-3.64 8.414-12.187 9.3-20.437 5.734l-8.04-3.472-6.253 14.46-9.047-3.91ZM302.047 724.523c-2.172 7.942-.05 14.985 7.726 17.114 8.442 2.308 13.227-3.426 15.207-10.676 2.106-7.703.36-14.684-7.824-16.922-7.93-2.168-12.945 2.563-15.11 10.484m32.77 9.004c-3.097 11.328-13.097 19.078-27.359 15.176-13.773-3.77-18.45-15.031-15.262-26.683 3.239-11.844 13.688-18.762 27.328-15.032 12.84 3.516 18.7 14.086 15.293 26.54M354.145 733.355l8.187 1.06c5.34.69 7.645-.93 8.098-4.43.433-3.407-1.72-5.622-6.496-6.239l-8.414-1.09Zm-.926 7.211-2.153 16.75-9.539-1.23 5.38-41.863 19.84 2.562c9.839 1.266 14.495 6.98 13.663 13.445-.723 5.618-4.41 8.235-7.836 9.06 2.137 1.054 5.235 3.648 4.274 11.14l-.27 2.07c-.36 2.813-.746 6.023-.375 8.063l-9.254-1.192c-.554-1.926-.304-5.078.266-9.523l.078-.614c.59-4.578-.375-6.906-7.652-7.843ZM398.418 726.406l-13.84-.21.113-7.481 37.485.566-.113 7.48-13.79-.206-.527 34.742-9.855-.149ZM437.18 747.594c1.504 4.093 4.968 5.578 10.207 4.984 5.226-.586 7.246-2.754 6.902-5.824-.379-3.41-2.726-4.649-10.66-5.445-12.617-1.29-16.129-5.098-16.762-10.762-.816-7.313 4.528-12.945 15.242-14.149 12.016-1.355 17.477 4.09 18.813 10.153l-9.863 1.113c-.758-2.531-2.614-5.156-8.45-4.496-3.972.445-6.199 2.234-5.867 5.21.328 2.919 2.383 3.888 9.875 4.634 13.485 1.39 16.883 5.601 17.543 11.515.86 7.66-4.808 13.621-16.773 14.97-11.489 1.292-18.125-3.263-20.07-10.79ZM526.074 724.648c-2.18-6.863-4.504-14.59-5.758-19.195l-.296.094c.566 8.851.484 23.629.32 37.535l-7.988 2.535c-6.657-9.996-15.989-23.836-20.446-31.262l-.289.094c1.867 4.598 4.676 12.82 6.863 19.715l4.579 14.41-8.547 2.715-12.774-40.223 13.957-4.433c6.72 9.433 14.7 21.414 17.907 26.996l.07-.024c-.617-5.625-.328-21.234.015-32.687l13.454-4.273 12.773 40.214-9.047 2.875ZM573.707 700.438l-19.539 9.628 4.738 9.621 21.551-10.617 2.254 7.23-29.074 14.329L535 692.739l28.965-14.27 3.305 6.715-20.391 10.046 3.992 8.122 19.531-9.63ZM597.14 698.762l6.118-4.137c7.23-4.89 7.05-12.035 2.441-18.848-3.863-5.707-10.398-8.925-17.785-3.93l-6.164 4.173Zm-27.675-23.332 14.95-10.121c10.983-7.426 22.702-5.579 29.698 4.757 6.899 10.192 5.157 22.63-6.386 30.434l-14.61 9.883ZM615.117 641.77l27.27 32.183-7.512 6.367-27.273-32.183ZM670.066 627.953c4.454 6.75 4.204 15.352-3.64 23.633-9.938 10.48-21.5 8.914-30.207.656-8.39-7.965-11.063-20.215-.95-30.887 8.34-8.804 17.168-8.53 23.051-4.48l-6.777 7.148c-3.012-1.554-7.047-2.007-11.3 2.489-5.587 5.894-2.84 12.828 2.73 18.117 5.18 4.906 12.5 8.11 18.554 1.719 4.418-4.664 2.918-8.883 1.727-11.203ZM658.063 594.973l33.578 25.55-5.957 7.836-33.579-25.547ZM700.273 609.227l-36.386-21.38 6.176-10.527c11.05-.113 31.109-.523 36.132 0l.063-.113c-4.055-1.785-10.371-5.5-16.34-9.008l-10.79-6.336 4.524-7.699 36.387 21.371-5.86 9.988c-9.585.047-32.413.153-37.761-.37l-.063.109c3.352 1.586 10.88 5.883 17.399 9.715l11.062 6.496ZM720.824 525.816l-7.91 20.29 9.988 3.898 8.73-22.379 6.548 3.809-11.782 30.195-39.32-15.352 11.735-30.082 6.968 2.72-8.261 21.183 8.425 3.289 7.914-20.29Zm0 0"/><path fill="#f5a010" fill-opacity="1" fill-rule="nonzero" d="M429.457 162.48c8.04-1.324 15.754.54 23.496 1.668 10.43 1.524 20.633 4.29 30.7 7.348 6.804 2.07 13.324 5.055 19.988 7.59 14.187 5.402 27.054 13.336 39.773 21.39 7.649 4.837 14.856 10.45 21.832 16.344 9.012 7.614 17.121 16.11 25.25 24.582 3.54 3.684 6.469 7.961 9.598 12.028 9.308 12.117 17.133 25.156 23.949 38.82 8.832 17.707 15.508 36.152 19.613 55.559 5.07 23.992 6.754 48.07 4.555 72.57-2.953 32.848-12.473 63.566-27.969 92.523-4.996 9.336-11.117 17.953-17.426 26.48-7.687 10.4-15.867 20.313-25.16 29.31-8.554 8.277-17.633 15.91-27.218 23.003-15.75 11.649-32.672 21.075-50.774 28.477-12.332 5.043-25.062 8.742-38.059 11.648-25.105 5.621-50.52 6.504-76 4.196-15.628-1.422-31.003-4.778-46.023-9.57-17.586-5.614-34.21-13.594-51.266-20.52-17.109-6.946-34.199-13.969-51.507-20.403-15.38-5.718-30.832-11.293-46.551-16.066-8.27-2.508-11.383-7.953-9.57-15.176 1.238-4.949 9.136-8.843 14.019-6.73 10.23 4.441 20.55 8.73 31.04 12.52 15.425 5.577 30.796 11.296 46.538 16.011 11.942 3.574 23.902 6.992 36.094 9.496 11.23 2.313 22.55 4.176 34.11 3.926 3.39-.07 6.05-1.05 7.78-4.129 1.778-3.168.157-5.52-1.722-7.852-6.895-8.55-15.738-12.476-26.758-11.285-6.914.75-13.855.989-20.8.516-1.919-.129-4.063-.067-4.72-2.797-.64-2.66 0-4.93 2.028-6.422 8.254-6.074 17.402-10.137 27.457-12.414 17.46-3.957 35.133-3.273 52.754-2.473 9.906.446 19.789 1.977 29.62 3.45 21.68 3.238 43.208 2.886 64.665-1.727 21.883-4.707 42.008-13.547 60.738-25.648 10.75-6.95 20.543-15.16 29.403-24.364 13.343-13.867 24.132-29.492 32.543-46.918 9.703-20.105 14.77-41.183 16.425-63.332 1.352-18.144-.164-36.07-3.59-53.8-3.316-17.192-9.25-33.594-16.585-49.54-7.262-15.78-16.618-30.234-27.766-43.351-8.223-9.676-16.961-18.973-27.234-26.816-9.004-6.872-17.895-13.805-27.63-19.614-9.59-5.726-19.386-11.25-29.808-15.093-9.246-3.41-18.434-7.278-28.394-8.715-7.223-1.04-14.297-3.094-21.438-4.7"/><path fill="#3baa9c" fill-opacity="1" fill-rule="nonzero" d="M557.258 372.824c-.063 16.102-8.696 29.442-20.496 33.473-13.723 4.691-27.633-.848-34.285-13.774-3.172-6.171-6.168-12.437-9.16-18.703-3.837-8.027-10.497-11.093-19.008-8.64-11.887 3.43-20.313-2.828-20.344-15.215-.031-14.418-3.797-27.781-12.05-39.567-4.837-6.894-7.724-14.703-11.77-21.953-11.133-19.918-24.985-37.847-39.832-55.05-20.52-23.778-42.614-46.055-65.157-67.903-11.445-11.094-11.504-29.133-.176-40.324 11.348-11.219 29.938-11.004 40.641.941a1402.432 1402.432 0 0 1 47.23 55.614c23.262 28.87 45.368 58.597 65.653 89.652 9.445 14.46 18.336 29.262 27.27 44.043 6.218 10.289 15.44 17.648 26.226 22.766 8.902 4.222 16.563 9.535 21.11 18.597 2.824 5.645 4.43 11.52 4.148 16.043"/><path fill="#3baa9c" fill-opacity="1" fill-rule="nonzero" d="M346.719 532.152c11.554-11.273 22.883-22.757 32.898-35.453 20.024-25.36 36.051-52.86 44.77-84.226 2.261-8.13 4.336-16.309 6.117-24.57 1.723-7.993 6.14-14.59 12.047-20.157 3.238-3.05 6.781-3.043 10.113-.094 6.996 6.203 14.84 8.137 23.844 5.118 4.699-1.579 7.226-.438 9.539 4.14 2.957 5.848 5.808 11.75 8.66 17.649 3.797 7.867 9.41 13.89 17.348 17.757 5.476 2.664 6.515 6.375 3.39 11.758-2.875 4.957-6.785 9.008-11.238 12.645-10.578 8.652-19.594 18.933-29.191 28.594-22.829 22.98-45.473 46.14-68.215 69.203-.938.953-1.883 1.941-3.563 1.707a360.862 360.862 0 0 0-55.843-3.41c-.227-.22-.45-.438-.676-.66"/><path fill="#3baa9c" fill-opacity="1" fill-rule="nonzero" d="M319.004 537.344c5.047-5.621 11.262-13.055 18.016-19.965 20.44-20.902 38.53-43.594 53.52-68.75 5.89-9.887 13.82-18.219 21.487-26.723.301-.332.922-.375 1.782-.699-2.547 8.59-6.743 16.16-10.852 23.711-13.219 24.293-30.156 45.863-49.086 65.91-5.832 6.18-12.36 11.735-17.863 18.18-5.34 6.246-12.406 7.379-17.004 8.336"/><path fill="#f5a010" fill-opacity="1" fill-rule="nonzero" d="M241.625 530.012c.078-5.285 2.465-8.258 7.547-9.57 4.2-1.087 10.035 1.378 12.168 4.921 7.586 12.602 15.238 25.168 22.87 37.746 1.68 2.762 3.403 5.496 5.063 8.27.489.816 1.477 1.762.57 2.66-.784.774-1.929.14-2.84-.203-8.82-3.344-16.386-8.469-22.855-15.399-6.402-6.863-12.515-14-19.39-20.433-2.172-2.031-3.383-4.95-3.133-7.992M262.71 565.824c-16.812-5.394-33.835-9.222-47.929-19.89-2.386-1.805-4.855-3.52-6.367-6.262-2.578-4.688-1.25-10.926 3.11-14.184 4.316-3.218 10.074-2.695 14.035.969 8.093 7.492 15.054 16.043 22.765 23.879 4.2 4.262 7.996 8.879 12.262 13.062.762.75 1.422 1.614 2.125 2.426"/><path fill="#3baa9c" fill-opacity="1" fill-rule="nonzero" d="M347.395 532.813c-.29.058-.586.117-.875.167.07-.273.132-.546.203-.828.222.223.445.442.672.66"/><path fill="#f5a010" fill-opacity="1" fill-rule="nonzero" d="M225.719 132.879c-4.121 6.11-12.414 7.723-18.52 3.601-6.11-4.12-7.722-12.417-3.601-18.527 4.117-6.11 12.41-7.723 18.52-3.601 6.109 4.12 7.722 12.418 3.6 18.527M740.367 441.418c5.215 5.21 5.215 13.66 0 18.871-5.21 5.211-13.656 5.211-18.867 0-5.207-5.21-5.207-13.66 0-18.871 5.21-5.215 13.656-5.215 18.867 0M174.816 642.805c0 7.37-5.968 13.343-13.34 13.343-7.367 0-13.34-5.972-13.34-13.343 0-7.371 5.973-13.344 13.34-13.344 7.372 0 13.34 5.973 13.34 13.344"/><path fill="#3baa9c" fill-opacity="1" fill-rule="nonzero" d="M291.05 96.723c3.41 8.765 2.098 13.875-6.304 17.148-1.422.555-3.91 1.387-5.387 1.547l-2.546-6.555c.726-.144 2.703-.785 3.878-1.242 3.813-1.488 3.403-4.238 2.27-7.148l-10.27-26.418 8.293-3.23ZM305.125 83.996c2.09 7.7 7.074 12.598 14.113 10.684 7.633-2.07 8.614-9.157 6.707-16.184-2.027-7.465-6.699-12.488-14.097-10.48-7.168 1.945-8.805 8.3-6.723 15.98m29.656-8.02c2.977 10.977-1.094 22.235-13.984 25.735-12.457 3.383-21.426-3.836-24.492-15.137-3.114-11.476 1.695-22.25 14.027-25.597 11.613-3.16 21.172 2.925 24.45 15M348.965 53.324l6.793 40.305-8.778 1.473-6.789-40.297ZM364.543 91.93l-2.805-40.797 10.996-.754c5.754 8.805 16.364 24.672 18.555 28.988l.113-.008c-.757-4.222-1.234-11.304-1.695-18.004l-.832-12.09 8.04-.55 2.812 40.789-10.434.726c-4.953-7.671-16.762-25.925-19.117-30.5l-.113.008c.542 3.551 1.222 11.926 1.722 19.227l.852 12.41ZM418.988 56.656l-12.476-.707.406-7.23 33.797 1.906-.406 7.23-12.434-.695-1.895 33.578-8.89-.508ZM470.055 73.078l7.285 1.594c4.758 1.039 6.98-.36 7.715-3.7.703-3.245-1.032-5.534-5.282-6.46l-7.492-1.645Zm-1.5 6.879-3.489 15.98-8.488-1.855 8.715-39.941L482.949 58c8.762 1.918 12.43 7.742 11.082 13.91-1.164 5.367-4.738 7.621-7.898 8.18 1.828 1.164 4.383 3.879 2.824 11.035l-.43 1.965c-.586 2.683-1.23 5.75-1.086 7.746l-8.234-1.805c-.324-1.894.191-4.91 1.113-9.148l.13-.59c.956-4.363.3-6.672-6.18-8.09ZM526.781 95.473l-18.601-6.414-3.387 9.828 20.52 7.066-3.36 6.504-27.687-9.539 13.34-38.652 27.578 9.5-2.364 6.851-19.418-6.695-2.855 8.285 18.601 6.414ZM545.332 98.652l6.125 2.946c3.707 1.78 7.008 1.62 8.82-2.145 1.825-3.797-.261-6.55-3.66-8.183l-6.289-3.024Zm.02-20.609 15.336 7.371c7.878 3.79 11.113 10.77 7.75 17.773-3.84 8.012-11.708 8.75-19.02 5.243l-7.133-3.43-6.605 13.766-8.028-3.856ZM582.793 96.938l7.543 4.714-17.871 28.52 17.379 10.879-4.711 5.601-24.051-15.066ZM617.832 151.184c3.184-8.532 5.223-13.985 6.773-17.457l-.043-.04c-3.332 2.485-8.98 6.157-15.449 10.403Zm-14.746-2.653-8.45 5.293-6.78-5.52 36.656-22.886 8.664 7.05-14.531 40.915-7.254-5.91 3.343-9.461ZM654.203 192.496c-6.668 4.059-14.68 3.7-21.773-3.773-8.989-9.45-6.59-20.246 1.836-28.27 8.117-7.723 19.78-10.031 28.922-.41 7.55 7.941 6.578 16.195 2.324 21.633l-6.133-6.446c1.695-2.8 2.445-6.558-1.406-10.609-5.055-5.316-11.754-2.855-17.145 2.277-5.008 4.762-8.59 11.563-3.113 17.325 4 4.21 8.062 2.875 10.324 1.789ZM679.504 217.938l-11.73-15.801-8.333 6.187 12.938 17.434-6.445 3.465-17.457-23.516 32.808-24.352 17.387 23.43-5.809 4.317-12.25-16.497-7.027 5.215 11.726 15.805ZM699.668 257.324c6.121-3.332 13.035-6.976 17.18-9.023l-.137-.25c-8.242 2.285-22.168 5.187-35.281 7.84l-3.633-6.653c8.383-7.984 19.965-19.14 26.265-24.629l-.132-.242c-4.04 2.602-11.34 6.774-17.496 10.125l-12.852 7.004-3.883-7.125 35.883-19.547 6.336 11.63c-7.84 7.925-17.879 17.487-22.633 21.487l.031.067c5.196-1.692 19.934-4.574 30.774-6.57l6.105 11.207-35.879 19.554-4.109-7.543ZM719.82 300.363l-6.957-18.406-9.722 3.672 7.675 20.3-7.152 1.579-10.348-27.399 38.25-14.449 10.309 27.3-6.777 2.552-7.258-19.215-8.195 3.101 6.949 18.407ZM705.637 313.496l39.777-9.5 2.559 10.723c-7.735 7.136-21.633 20.222-25.532 23.094l.024.113c4.047-1.442 10.957-3.082 17.484-4.64l11.785-2.821 1.875 7.848-39.777 9.5-2.426-10.172c6.742-6.16 22.801-20.817 26.922-23.903l-.027-.101c-3.41 1.12-11.559 3.16-18.68 4.87l-12.098 2.888Zm0 0"/><g clip-path="url(#4a37e65576)"><path fill="#3baa9c" fill-opacity="1" fill-rule="nonzero" d="m749.39 361.371-1.347-12.43 7.2-.78 3.648 33.679-7.196.773-1.343-12.386-33.422 3.625-.957-8.86Zm0 0"/></g><path fill="#3baa9c" fill-opacity="1" fill-rule="nonzero" d="M116.316 566.719c-6.148 6.828-10.082 11.187-12.828 13.883l.032.043c4.043-1.118 10.69-2.524 18.324-4.149Zm12.809 7.797 9.883-1.907 4.297 7.602-42.809 8.187-5.488-9.71 28.789-32.997 4.598 8.125-6.649 7.637ZM97.113 542.895l-2.847-6.88c-1.856-4.492-4.293-5.507-7.485-4.183-3.105 1.285-4.004 4.023-2.344 8.031l2.922 7.074Zm6.567-2.727 15.27-6.336 3.32 8.016-38.153 15.828-6.902-16.664c-3.426-8.27-.684-14.621 5.207-17.07 5.117-2.126 9.039-.505 11.312 1.769-.086-2.168.711-5.816 7.54-8.656l1.886-.782c2.567-1.062 5.477-2.296 7.047-3.558l3.219 7.77c-1.387 1.359-4.188 2.667-8.239 4.347l-.558.234c-4.172 1.73-5.711 3.594-3.184 9.707ZM73.031 507.047l3.426 12.004-7.039 2.004-9.285-32.5 7.035-2.008 3.418 11.957 32.684-9.328 2.44 8.554ZM58.094 479.434l-1.399-8.766 15.918-2.54-2.605-16.308-15.918 2.535-1.399-8.765 40.809-6.508 1.402 8.762-17.66 2.824 2.602 16.309L97.5 464.16l1.398 8.766Zm0 0"/><g clip-path="url(#3d2af3fcef)"><path fill="#3baa9c" fill-opacity="1" fill-rule="nonzero" d="m68.887 422.652-.258-7.433c-.164-4.86-2.086-6.664-5.543-6.547-3.356.11-5.16 2.355-5.012 6.695l.262 7.649Zm7.105-.238 16.528-.566.296 8.668-41.289 1.406-.617-18.024c-.308-8.945 4.488-13.925 10.863-14.144 5.54-.192 8.645 2.703 9.973 5.629.688-2.063 2.707-5.2 10.102-5.445l2.035-.075c2.781-.09 5.937-.222 7.855-.855l.285 8.406c-1.773.785-4.855 1.024-9.238 1.172l-.61.02c-4.51.152-6.609 1.363-6.382 7.972Zm0 0"/></g><path fill="#3baa9c" fill-opacity="1" fill-rule="nonzero" d="M71.785 383.012c8.028.742 14.422-2.192 15.094-9.446.726-7.863-5.637-11.265-12.969-11.945-7.781-.723-14.191 1.883-14.894 9.504-.68 7.387 4.757 11.145 12.77 11.887m2.855-30.535c11.445 1.062 20.671 8.816 19.445 22.093-1.184 12.836-11.184 18.688-22.965 17.59-11.969-1.11-20.476-9.387-19.305-22.09 1.106-11.965 10.235-18.761 22.825-17.593M86.219 339.512c4.254-.02 6.664-2.516 7.691-7.157 1.028-4.628-.375-7.015-3.324-7.668-3.285-.722-5.137.895-8.258 7.395-4.992 10.344-9.582 12.156-15.023 10.953-7.032-1.55-10.645-7.84-8.547-17.328 2.355-10.644 9.054-13.617 15.078-12.883l-1.938 8.735c-2.57-.13-5.566.636-6.71 5.804-.778 3.516.21 5.965 3.074 6.598 2.804.625 4.316-.832 7.265-6.973 5.344-11.05 10.274-12.644 15.961-11.386 7.364 1.628 11.184 8.285 8.84 18.886-2.254 10.18-8.48 14.422-16.043 13.758ZM104.555 275.379c6.718 4.117 10.093 11.433 6.675 21.129-4.335 12.281-15.125 15.008-26.207 11.094-10.68-3.766-18.14-13.13-13.73-25.625 3.637-10.317 11.488-13.168 18.336-11.817l-2.957 8.375c-3.285-.25-7.012.774-8.867 6.035-2.438 6.91 2.875 11.778 9.965 14.278 6.585 2.324 14.34 2.457 16.976-5.028 1.93-5.465-1.144-8.492-3.16-10.02ZM103.707 258.164c7.18 3.672 14.219 3.316 17.527-3.164 3.594-7.031-1.062-12.55-7.617-15.898-6.965-3.563-13.879-3.524-17.36 3.289-3.37 6.609.286 12.113 7.45 15.773m13.98-27.281c10.239 5.234 15.934 15.847 9.868 27.722-5.864 11.473-17.32 13.192-27.856 7.805-10.707-5.473-15.543-16.308-9.742-27.664 5.465-10.7 16.469-13.617 27.73-7.863M126.254 214.79l3.828-5.587c2.316-3.394 2.645-6.683-.836-9.066-3.52-2.41-6.562-.785-8.687 2.32l-3.93 5.742Zm-20.508-3.278 9.586-14.012c4.926-7.195 12.344-9.293 18.828-4.855 7.406 5.074 6.992 12.972 2.422 19.656l-4.453 6.508 12.73 8.718-5.015 7.328ZM167.68 197.035l-11.016-9.582c-.351-.305-.71-.527-1.226-.61l-28.442-5.984 6.594-7.582c6.781 1.703 15.738 4.032 20.469 5.434-2.09-4.191-5.704-13.29-8.18-19.563l6.098-7.007 9.644 27.398c.106.32.137.566.774 1.125l11.113 9.668Zm0 0"/></svg>